HIERARCHY
ROOT Hips
{
	OFFSET 0.000000 83.214638 0.000000
	CHANNELS 6 Xposition Yposition Zposition Xrotation Yrotation Zrotation
	JOINT Pelvis
	{
		OFFSET 0.000000 0.000000 0.000000
		CHANNELS 3 Xrotation Yrotation Zrotation
		JOINT LeftUpLeg
		{
			OFFSET 8.479700 -4.795502 -0.379100
			CHANNELS 3 Xrotation Yrotation Zrotation
			JOINT LeftLeg
			{
				OFFSET 0.024144 -32.555107 0.112900
				CHANNELS 3 Xrotation Yrotation Zrotation
				JOINT LeftFoot
				{
					OFFSET -0.024144 -32.638630 -3.012600
					CHANNELS 3 Xrotation Yrotation Zrotation
					JOINT LeftToeBase
					{
						OFFSET 0.970200 -13.225400 11.864200
						CHANNELS 3 Xrotation Yrotation Zrotation
						End Site
						{
							OFFSET 0.000000 12.319262 0.000000
						}
					}
					JOINT LFootTongue
					{
						OFFSET 1.142400 -1.059800 6.665200
						CHANNELS 3 Xrotation Yrotation Zrotation
						End Site
						{
							OFFSET 0.000000 12.319262 0.000000
						}
					}
				}
				JOINT LeftPantLeg
				{
					OFFSET 0.918482 -16.533964 -2.284700
					CHANNELS 3 Xrotation Yrotation Zrotation
					End Site
					{
						OFFSET 0.350399 24.744368 0.000000
					}
				}
			}
		}
		JOINT RightUpLeg
		{
			OFFSET -8.479700 -4.795502 -0.379100
			CHANNELS 3 Xrotation Yrotation Zrotation
			JOINT RightLeg
			{
				OFFSET -0.023144 -32.555092 0.112900
				CHANNELS 3 Xrotation Yrotation Zrotation
				JOINT RightFoot
				{
					OFFSET 0.023144 -32.638641 -3.012700
					CHANNELS 3 Xrotation Yrotation Zrotation
					JOINT RightToeBase
					{
						OFFSET -0.970200 -13.225400 11.864200
						CHANNELS 3 Xrotation Yrotation Zrotation
						End Site
						{
							OFFSET 0.000000 12.319244 0.000000
						}
					}
					JOINT RFootTongue
					{
						OFFSET -1.142200 -1.059800 6.665200
						CHANNELS 3 Xrotation Yrotation Zrotation
						End Site
						{
							OFFSET 0.000000 12.319243 0.000000
						}
					}
				}
				JOINT RightPantLeg
				{
					OFFSET -0.919482 -16.533978 -2.284800
					CHANNELS 3 Xrotation Yrotation Zrotation
					End Site
					{
						OFFSET -0.350400 24.744419 0.000000
					}
				}
			}
		}
	}
	JOINT Spine
	{
		OFFSET 0.000000 7.722000 1.166200
		CHANNELS 3 Xrotation Yrotation Zrotation
		JOINT Spine1
		{
			OFFSET 0.000000 12.024101 0.248800
			CHANNELS 3 Xrotation Yrotation Zrotation
			JOINT Spine2
			{
				OFFSET 0.000000 11.502998 -0.491200
				CHANNELS 3 Xrotation Yrotation Zrotation
				JOINT Neck
				{
					OFFSET 0.000000 18.430702 -3.123100
					CHANNELS 3 Xrotation Yrotation Zrotation
					JOINT Head
					{
						OFFSET 0.000000 9.051102 1.034000
						CHANNELS 3 Xrotation Yrotation Zrotation
						JOINT HairB
						{
							OFFSET 0.208400 24.786102 24.822300
							CHANNELS 3 Xrotation Yrotation Zrotation
							End Site
							{
								OFFSET 0.000000 32.263779 0.000000
							}
						}
						JOINT HairA
						{
							OFFSET -7.081100 24.428299 23.196600
							CHANNELS 3 Xrotation Yrotation Zrotation
							End Site
							{
								OFFSET 0.000000 32.263779 0.000000
							}
						}
						JOINT Hat
						{
							OFFSET 16.728800 15.048294 -15.439601
							CHANNELS 3 Xrotation Yrotation Zrotation
							End Site
							{
								OFFSET 0.000000 32.263779 0.000000
							}
						}
					}
				}
				JOINT LeftShoulder
				{
					OFFSET 6.197800 13.665199 -4.064700
					CHANNELS 3 Xrotation Yrotation Zrotation
					JOINT LeftArm
					{
						OFFSET 7.778100 -0.187103 -1.709300
						CHANNELS 3 Xrotation Yrotation Zrotation
						JOINT LeftForeArm
						{
							OFFSET 22.049376 0.000000 0.000000
							CHANNELS 3 Xrotation Yrotation Zrotation
							JOINT LeftHand
							{
								OFFSET 23.009392 0.000000 0.000000
								CHANNELS 3 Xrotation Yrotation Zrotation
								JOINT LeftHandThumb1
								{
									OFFSET 3.507191 -2.063065 3.133727
									CHANNELS 3 Xrotation Yrotation Zrotation
									JOINT LeftHandThumb2
									{
										OFFSET 3.101337 -1.790558 1.790558
										CHANNELS 3 Xrotation Yrotation Zrotation
										JOINT LeftHandThumb3
										{
											OFFSET 3.058640 -1.765907 1.765906
											CHANNELS 3 Xrotation Yrotation Zrotation
											End Site
											{
												OFFSET -0.415260 3.926476 -0.049563
											}
										}
									}
								}
								JOINT LeftHandIndex1
								{
									OFFSET 11.334419 -0.901459 3.706815
									CHANNELS 3 Xrotation Yrotation Zrotation
									JOINT LeftHandIndex2
									{
										OFFSET 3.283112 0.000000 0.000000
										CHANNELS 3 Xrotation Yrotation Zrotation
										JOINT LeftHandIndex3
										{
											OFFSET 3.323853 0.000000 0.000000
											CHANNELS 3 Xrotation Yrotation Zrotation
											End Site
											{
												OFFSET -1.135597 3.097809 0.402452
											}
										}
									}
								}
								JOINT LeftHandMiddle1
								{
									OFFSET 11.335861 0.000000 0.000000
									CHANNELS 3 Xrotation Yrotation Zrotation
									JOINT LeftHandMiddle2
									{
										OFFSET 3.410492 0.000000 0.000000
										CHANNELS 3 Xrotation Yrotation Zrotation
										JOINT LeftHandMiddle3
										{
											OFFSET 3.312172 0.000000 0.000000
											CHANNELS 3 Xrotation Yrotation Zrotation
											End Site
											{
												OFFSET -1.150200 3.080154 0.400270
											}
										}
									}
								}
								JOINT LeftHandRing1
								{
									OFFSET 11.514786 -0.013176 -3.003090
									CHANNELS 3 Xrotation Yrotation Zrotation
									JOINT LeftHandRing2
									{
										OFFSET 3.053307 0.000000 0.000000
										CHANNELS 3 Xrotation Yrotation Zrotation
										JOINT LeftHandRing3
										{
											OFFSET 3.295807 0.000000 0.000000
											CHANNELS 3 Xrotation Yrotation Zrotation
											End Site
											{
												OFFSET -1.281006 3.013344 0.375733
											}
										}
									}
								}
								JOINT LeftHandPinky1
								{
									OFFSET 10.518692 -0.960396 -5.730441
									CHANNELS 3 Xrotation Yrotation Zrotation
									JOINT LeftHandPinky2
									{
										OFFSET 2.861649 0.000000 0.000000
										CHANNELS 3 Xrotation Yrotation Zrotation
										JOINT LeftHandPinky3
										{
											OFFSET 2.863380 0.000000 0.000000
											CHANNELS 3 Xrotation Yrotation Zrotation
											End Site
											{
												OFFSET -0.843597 2.711159 0.369971
											}
										}
									}
								}
							}
							JOINT LSleeve
							{
								OFFSET 6.676277 -0.344902 -1.011730
								CHANNELS 3 Xrotation Yrotation Zrotation
								End Site
								{
									OFFSET 0.000000 14.885353 0.000000
								}
							}
						}
					}
				}
				JOINT RightShoulder
				{
					OFFSET -6.197800 13.665199 -4.064700
					CHANNELS 3 Xrotation Yrotation Zrotation
					JOINT RightArm
					{
						OFFSET -7.778100 -0.187103 -1.709300
						CHANNELS 3 Xrotation Yrotation Zrotation
						JOINT RightForeArm
						{
							OFFSET -22.049376 0.000000 0.000000
							CHANNELS 3 Xrotation Yrotation Zrotation
							JOINT RightHand
							{
								OFFSET -23.009392 0.000000 0.000000
								CHANNELS 3 Xrotation Yrotation Zrotation
								JOINT RightHandThumb1
								{
									OFFSET -3.507191 -2.063065 3.133727
									CHANNELS 3 Xrotation Yrotation Zrotation
									JOINT RightHandThumb2
									{
										OFFSET -3.101337 -1.790558 1.790558
										CHANNELS 3 Xrotation Yrotation Zrotation
										JOINT RightHandThumb3
										{
											OFFSET -3.058640 -1.765907 1.765906
											CHANNELS 3 Xrotation Yrotation Zrotation
											End Site
											{
												OFFSET 0.415260 3.926476 -0.049563
											}
										}
									}
								}
								JOINT RightHandIndex1
								{
									OFFSET -11.334419 -0.901459 3.706815
									CHANNELS 3 Xrotation Yrotation Zrotation
									JOINT RightHandIndex2
									{
										OFFSET -3.283112 0.000000 0.000000
										CHANNELS 3 Xrotation Yrotation Zrotation
										JOINT RightHandIndex3
										{
											OFFSET -3.323853 0.000000 0.000000
											CHANNELS 3 Xrotation Yrotation Zrotation
											End Site
											{
												OFFSET 1.135597 3.097809 0.402452
											}
										}
									}
								}
								JOINT RightHandMiddle1
								{
									OFFSET -11.335861 0.000000 0.000000
									CHANNELS 3 Xrotation Yrotation Zrotation
									JOINT RightHandMiddle2
									{
										OFFSET -3.410492 0.000000 0.000000
										CHANNELS 3 Xrotation Yrotation Zrotation
										JOINT RightHandMiddle3
										{
											OFFSET -3.312172 0.000000 0.000000
											CHANNELS 3 Xrotation Yrotation Zrotation
											End Site
											{
												OFFSET 1.150200 3.080154 0.400270
											}
										}
									}
								}
								JOINT RightHandRing1
								{
									OFFSET -11.514786 -0.013176 -3.003090
									CHANNELS 3 Xrotation Yrotation Zrotation
									JOINT RightHandRing2
									{
										OFFSET -3.053307 0.000000 0.000000
										CHANNELS 3 Xrotation Yrotation Zrotation
										JOINT RightHandRing3
										{
											OFFSET -3.295807 0.000000 0.000000
											CHANNELS 3 Xrotation Yrotation Zrotation
											End Site
											{
												OFFSET 1.281006 3.013344 0.375733
											}
										}
									}
								}
								JOINT RightHandPinky1
								{
									OFFSET -10.518692 -0.960396 -5.730441
									CHANNELS 3 Xrotation Yrotation Zrotation
									JOINT RightHandPinky2
									{
										OFFSET -2.861649 0.000000 0.000000
										CHANNELS 3 Xrotation Yrotation Zrotation
										JOINT RightHandPinky3
										{
											OFFSET -2.863380 0.000000 0.000000
											CHANNELS 3 Xrotation Yrotation Zrotation
											End Site
											{
												OFFSET 0.843597 2.711159 0.369971
											}
										}
									}
								}
							}
							JOINT RSleeve
							{
								OFFSET -6.676277 -0.344902 -1.011730
								CHANNELS 3 Xrotation Yrotation Zrotation
								End Site
								{
									OFFSET 0.000000 14.885353 0.000000
								}
							}
						}
					}
				}
				JOINT Backpack
				{
					OFFSET 0.000000 -2.471497 36.677502
					CHANNELS 3 Xrotation Yrotation Zrotation
					End Site
					{
						OFFSET 0.000000 20.427315 0.000000
					}
				}
				JOINT Hood
				{
					OFFSET 0.000000 18.754097 -10.431000
					CHANNELS 3 Xrotation Yrotation Zrotation
					JOINT Hood1
					{
						OFFSET 0.000000 -5.011002 -7.685901
						CHANNELS 3 Xrotation Yrotation Zrotation
						End Site
						{
							OFFSET 0.000000 9.175140 0.000000
						}
					}
				}
				JOINT LHoodieString
				{
					OFFSET 5.250500 16.397697 3.089900
					CHANNELS 3 Xrotation Yrotation Zrotation
					JOINT LHoodieString1
					{
						OFFSET 0.257700 -6.364304 3.694600
						CHANNELS 3 Xrotation Yrotation Zrotation
						JOINT LHoodieString2
						{
							OFFSET 0.000000 -9.643799 2.679100
							CHANNELS 3 Xrotation Yrotation Zrotation
							End Site
							{
								OFFSET 0.000000 10.009018 0.000000
							}
						}
					}
				}
				JOINT RHoodieString
				{
					OFFSET -5.250500 16.397697 3.089900
					CHANNELS 3 Xrotation Yrotation Zrotation
					JOINT RHoodieString1
					{
						OFFSET -0.257700 -6.364304 3.694600
						CHANNELS 3 Xrotation Yrotation Zrotation
						JOINT RHoodieString2
						{
							OFFSET 0.000000 -9.643799 2.679100
							CHANNELS 3 Xrotation Yrotation Zrotation
							End Site
							{
								OFFSET 0.000000 10.009018 0.000000
							}
						}
					}
				}
			}
			JOINT LBackpack_Strap
			{
				OFFSET 15.223200 -7.719803 -6.610900
				CHANNELS 3 Xrotation Yrotation Zrotation
				End Site
				{
					OFFSET 0.000000 16.040596 0.000000
				}
			}
			JOINT RBackpack_Strap
			{
				OFFSET -15.223000 -7.719803 -6.610900
				CHANNELS 3 Xrotation Yrotation Zrotation
				End Site
				{
					OFFSET 0.000000 16.040596 0.000000
				}
			}
		}
	}
	JOINT BoyFacialAnim_Joint
	{
		OFFSET 1.000000 -82.208099 -1.550900
		CHANNELS 3 Xrotation Yrotation Zrotation
		End Site
		{
			OFFSET 0.000000 30.012791 0.000000
		}
	}
}
MOTION
Frames: 4
Frame Time: 0.033333
-2.467001 78.200882 0.946230 6.208469 -26.170211 15.775758 -0.000000 0.000002 -0.000000 -7.313265 11.342841 -5.249650 23.728897 9.963289 -6.474033 -16.591071 17.400841 -4.443271 0.000000 0.000000 -0.000000 0.000000 0.000000 0.000000 -0.000001 0.000001 -0.000000 -31.420250 1.307938 -12.461323 47.703363 6.869708 -6.728842 -22.083661 0.168474 2.478733 -0.000000 0.000002 0.000000 -0.000000 0.000002 0.000000 -0.000001 0.000001 -0.000001 18.320010 -0.701078 14.078636 0.157183 -0.389799 0.023471 0.149066 -0.394277 0.031522 10.049072 -6.212165 -0.248006 -37.063970 -22.742877 -18.469194 -0.000000 -0.000001 0.000000 -0.000000 -0.000001 0.000000 -0.000000 -0.000001 0.000000 1.501070 -26.910684 -1.402379 38.089083 16.898878 -95.863754 -0.000036 -44.243261 -0.000024 16.548923 -10.881557 16.184374 -2.243550 11.555933 10.006463 3.664665 16.070376 4.049750 -0.000002 0.000001 0.000003 0.149984 1.432198 -11.956584 0.935926 3.471007 -30.172559 0.000002 0.000000 -0.000002 0.464616 2.490850 -21.128678 0.843245 3.306719 -28.604523 -0.000001 -0.000001 0.000002 0.780219 3.188632 -27.492249 1.025662 3.620672 -31.623663 -0.000000 0.000001 -0.000002 3.139636 7.073149 -31.218971 0.879961 -0.707110 -29.506875 0.000002 0.000001 -0.000000 0.000001 -0.000002 -0.000001 -0.726624 -11.138957 -0.730346 -24.270596 37.589325 48.894900 -0.000001 123.168979 -0.000009 62.432266 -2.096636 -45.966524 -2.858922 -8.307972 -13.423938 3.193506 -13.919616 -6.732424 0.000000 0.000002 -0.000004 0.047601 0.813879 -6.694051 0.123532 -1.307444 10.794071 -0.000001 0.000000 -0.000000 0.000836 -0.105726 0.867489 0.204871 -1.678774 13.915856 0.000000 0.000000 0.000002 0.036856 -0.716314 5.888440 0.433574 -2.421281 20.302102 -0.000000 0.000000 0.000002 0.033032 -0.678111 5.573277 0.378778 -2.267844 18.963093 0.000001 0.000001 -0.000003 0.000001 0.000001 -0.000001 -0.000001 0.000000 -0.000001 -0.000001 0.000000 -0.000001 -0.000001 0.000000 -0.000001 -0.000001 0.000000 -0.000001 -0.000001 0.000000 -0.000000 -0.000002 -0.000001 -0.000002 -0.000001 0.000000 -0.000001 -0.000001 0.000000 -0.000000 -0.000002 -0.000001 -0.000002 0.000002 0.000000 -0.000001 0.000002 0.000000 -0.000001 -0.000000 0.000002 -0.000000 
-2.475897 78.207085 0.955978 6.224268 -26.180069 15.775058 0.000000 0.000003 0.000000 -7.291691 11.342478 -5.251577 23.677927 9.975218 -6.458592 -16.571584 17.403704 -4.455370 -0.000000 0.000000 -0.000000 -0.000000 0.000000 0.000000 0.000000 0.000001 -0.000001 -31.408096 1.308563 -12.448042 47.673307 6.869026 -6.726228 -22.078308 0.178461 2.476527 -0.000000 0.000000 -0.000000 -0.000000 0.000000 -0.000000 0.000002 0.000001 -0.000000 18.321591 -0.715777 14.069246 0.163005 -0.391346 0.025679 0.154864 -0.395958 0.033804 10.073218 -6.262252 -0.221201 -36.998465 -23.252788 -18.236393 0.000000 -0.000000 0.000000 0.000000 -0.000000 0.000000 0.000000 -0.000000 0.000000 1.506903 -26.983169 -1.406984 38.137987 16.979536 -95.907686 0.000000 -44.274768 -0.000006 16.516661 -10.861332 16.187413 -2.243550 11.555932 10.006464 3.664664 16.070380 4.049751 -0.000005 0.000001 0.000000 0.149452 1.429597 -11.934771 0.935266 3.469862 -30.161603 -0.000000 -0.000001 -0.000004 0.463819 2.488812 -21.110505 0.842624 3.305624 -28.594377 -0.000000 0.000000 0.000000 0.779412 3.187075 -27.477790 1.025159 3.619863 -31.615563 0.000000 -0.000003 0.000003 3.138154 7.072347 -31.206888 0.879587 -0.707715 -29.500933 0.000003 0.000002 0.000000 0.000001 0.000001 0.000001 -0.721105 -11.073450 -0.718296 -24.282945 37.501229 48.868361 0.000092 123.271555 -0.000123 62.481819 -2.111770 -45.975871 -2.858924 -8.307972 -13.423935 3.193505 -13.919616 -6.732421 -0.000000 -0.000002 -0.000004 0.048069 0.818032 -6.728133 0.123134 -1.305429 10.777023 0.000000 0.000000 0.000002 0.000742 -0.101890 0.836143 0.204366 -1.676709 13.898328 0.000001 0.000001 -0.000002 0.036475 -0.712732 5.859023 0.432874 -2.419380 20.285611 0.000001 0.000000 0.000002 0.032648 -0.674561 5.544339 0.378232 -2.266196 18.948613 0.000000 -0.000000 -0.000002 -0.000000 0.000002 -0.000001 0.000001 -0.000002 -0.000001 0.000001 -0.000002 -0.000001 0.000001 -0.000002 -0.000001 0.000001 -0.000002 -0.000001 0.000001 -0.000002 -0.000001 -0.000002 -0.000001 -0.000001 0.000001 -0.000002 -0.000001 0.000001 -0.000002 -0.000001 -0.000002 -0.000001 -0.000001 -0.000002 0.000000 0.000001 -0.000002 0.000000 0.000001 0.000000 0.000003 0.000000 
-2.487595 78.210732 0.962719 6.227272 -26.188328 15.762528 -0.000000 0.000001 0.000000 -7.272105 11.347150 -5.235581 23.651157 9.982156 -6.449043 -16.561341 17.392428 -4.471452 0.000000 0.000001 -0.000000 0.000000 0.000001 0.000000 0.000000 0.000000 -0.000001 -31.386492 1.310820 -12.423121 47.650866 6.858203 -6.723332 -22.077212 0.183849 2.472847 0.000000 0.000002 0.000000 0.000000 0.000002 0.000000 0.000001 -0.000001 0.000001 18.335286 -0.731172 14.058871 0.171185 -0.392812 0.022914 0.163010 -0.397724 0.031063 10.084404 -6.303282 -0.192752 -36.720675 -23.791084 -17.922203 0.000000 0.000000 0.000000 0.000000 0.000000 0.000000 0.000000 0.000000 0.000000 1.511499 -27.021046 -1.417834 38.171028 17.086845 -95.940409 -0.000001 -44.304316 0.000004 16.465315 -10.864347 16.187342 -2.243542 11.555929 10.006466 3.664667 16.070376 4.049755 -0.000003 0.000002 0.000000 0.149050 1.427673 -11.918588 0.934770 3.469033 -30.153472 0.000000 0.000001 -0.000002 0.463054 2.486806 -21.092767 0.842088 3.304593 -28.584430 0.000001 -0.000001 0.000002 0.778267 3.184882 -27.457371 1.024432 3.618682 -31.604149 -0.000000 -0.000002 -0.000002 3.135235 7.070803 -31.183348 0.878923 -0.708925 -29.489301 -0.000000 -0.000001 0.000001 0.000002 0.000001 0.000001 -0.715429 -11.025226 -0.691133 -24.311176 37.427989 48.852310 0.000000 123.352971 0.000003 62.569970 -2.146540 -45.966634 -2.858922 -8.307971 -13.423936 3.193506 -13.919614 -6.732421 -0.000001 0.000004 -0.000001 0.048331 0.820054 -6.745111 0.122939 -1.304385 10.768534 -0.000000 0.000000 0.000005 0.000718 -0.099022 0.812727 0.204011 -1.675192 13.885212 0.000001 0.000001 -0.000004 0.036074 -0.708836 5.826816 0.432130 -2.417335 20.267581 -0.000001 0.000000 0.000000 0.032193 -0.669660 5.503699 0.377432 -2.263828 18.928247 0.000000 0.000000 -0.000003 0.000002 -0.000002 0.000001 0.000001 -0.000002 0.000000 0.000001 -0.000002 0.000000 0.000001 -0.000002 0.000000 0.000001 -0.000002 0.000000 0.000001 -0.000002 0.000001 -0.000000 0.000002 0.000000 0.000001 -0.000002 0.000000 0.000001 -0.000002 0.000001 -0.000000 0.000002 0.000000 -0.000001 0.000002 0.000002 -0.000001 0.000002 0.000002 -0.000000 0.000001 0.000000 
-2.500353 78.211632 0.966995 6.225965 -26.192751 15.741071 -0.000000 0.000000 0.000000 -7.265216 11.358051 -5.200270 23.653420 9.982552 -6.448444 -16.563518 17.366845 -4.488370 0.000000 0.000000 -0.000000 0.000000 0.000000 -0.000000 0.000001 0.000000 -0.000000 -31.364041 1.315963 -12.386839 47.636198 6.839406 -6.720701 -22.079626 0.184434 2.469080 0.000000 -0.000002 -0.000000 0.000000 -0.000002 -0.000000 0.000001 -0.000001 0.000001 18.355092 -0.743361 14.051054 0.182098 -0.393741 0.016517 0.173861 -0.399108 0.024634 10.079040 -6.337817 -0.170067 -36.266874 -24.334222 -17.568519 0.000001 -0.000001 -0.000000 0.000001 -0.000001 -0.000000 0.000001 -0.000001 -0.000000 1.513061 -27.018560 -1.426290 38.174778 17.178337 -95.951153 -0.000011 -44.318707 -0.000018 16.404861 -10.886154 16.182984 -2.243548 11.555936 10.006469 3.664664 16.070375 4.049750 -0.000002 0.000003 0.000001 0.148772 1.426458 -11.907881 0.934457 3.468468 -30.148148 -0.000002 0.000001 -0.000002 0.462434 2.485203 -21.078329 0.841593 3.303741 -28.576340 0.000003 -0.000001 -0.000002 0.777187 3.182828 -27.437732 1.023726 3.617562 -31.593160 0.000003 -0.000001 -0.000002 3.132189 7.069221 -31.158479 0.878191 -0.710233 -29.477051 0.000002 0.000002 -0.000002 0.000002 0.000001 0.000000 -0.713571 -11.030888 -0.658087 -24.353159 37.405510 48.867562 -0.000003 123.381493 -0.000011 62.680557 -2.207109 -45.920687 -2.858923 -8.307972 -13.423939 3.193507 -13.919616 -6.732421 -0.000000 0.000002 -0.000002 0.048201 0.819030 -6.736599 0.123061 -1.304924 10.772824 0.000001 0.000000 0.000004 0.000698 -0.098335 0.806837 0.203894 -1.674761 13.881901 0.000000 0.000000 0.000001 0.035777 -0.705981 5.803260 0.431578 -2.415847 20.254390 -0.000001 -0.000000 0.000002 0.031719 -0.664899 5.464641 0.376672 -2.261627 18.908670 0.000000 -0.000000 -0.000002 0.000000 -0.000003 0.000002 0.000002 -0.000003 -0.000001 0.000002 -0.000003 -0.000001 0.000002 -0.000003 -0.000001 0.000002 -0.000003 -0.000001 0.000002 -0.000003 -0.000002 -0.000000 0.000000 -0.000000 0.000002 -0.000003 -0.000001 0.000002 -0.000003 -0.000002 -0.000000 0.000000 -0.000000 0.000002 -0.000002 -0.000000 0.000002 -0.000002 -0.000000 -0.000000 0.000000 0.000000 
